<svg xmlns="http://www.w3.org/2000/svg" viewBox="0 0 235.66478 709.40164">
  <defs>
    <style>
      .cls-1, .cls-2, .cls-3, .cls-4, .cls-5 {
        fill: none;
      }

      .cls-1, .cls-2, .cls-3, .cls-4, .cls-5, .cls-6 {
        stroke: #000;
      }

      .cls-1, .cls-4, .cls-5, .cls-6 {
        stroke-miterlimit: 10;
      }

      .cls-2, .cls-3, .cls-4 {
        stroke-linecap: round;
      }

      .cls-2, .cls-3 {
        stroke-linejoin: round;
      }

      .cls-2 {
        stroke-width: 0.4px;
      }

      .cls-3 {
        stroke-width: 0.2px;
      }

      .cls-5 {
        stroke-width: 0.75px;
      }

      .cls-6 {
        stroke-width: 0.5px;
      }
    </style>
  </defs>
  <title>Suit_03</title>
  <g id="shoes">
    <path class="cls-1" d="M227.98535,724.4872s-2.40066,4.81074,1.0643,10.61964,9.86181,6.55636,22.80443,5.74108,19.59031-10.32705,20.91514-12.05953,3.36846-11.63542,6.21654-14.47128c1.42675-.50955,8.01587-3.63372,9.88531-5.50316.86333-4.866-1.1873-7.26028-1.1873-7.26028" transform="translate(-183.22978 -32.22077)"/>
    <path class="cls-1" d="M375.16839,725.17184c1.134,3.02662,4.10372,13.48355-12.29258,15.1915s-27.5549-5.92089-30.6292-8.9952-5.807-14.91608-7.05952-16.51016-9.998-3.29208-10.36156-5.12385c-.361-1.81892-1.068-7.14345.59551-7.94636" transform="translate(-183.22978 -32.22077)"/>
    <path class="cls-1" d="M286.82053,686.2391c1.1535,3.26915,1.58887,13.86331.86324,15.31457s-11.90029,8.127-12.91617,9.86854-1.59638,15.38331-8.41728,20.02733-19.26853,6.11515-27.54068,5.2444-12.22373-9.7433-10.48222-13.37144,10.73929-22.20421,15.23818-26.7031,7.00754-16.14693,7.00754-16.14693,7.03516-4.41717,11.12135-3.29522,21.5054,6.9537,25.126,9.06185" transform="translate(-183.22978 -32.22077)"/>
    <path class="cls-1" d="M317.09534,686.2391c-1.245,3.569-1.92822,12.48568-1.58663,15.31457s11.04474,8.29432,13.43586,10.00227-1.25249,12.18337,6.14862,18.10425,20.837,9.79224,31.19852,6.60407,9.22292-11.50019,8.312-14.46063S355.247,689.61578,354.22221,686.2391a59.67593,59.67593,0,0,1-1.49733-5.97258,11.92158,11.92158,0,0,0-10.09161-3.50118c-6.05986.97323-23.0404,9.20682-25.53793,9.47376" transform="translate(-183.22978 -32.22077)"/>
    <path class="cls-2" d="M327.77553,683.79363c4.24267.94553,12.2425.50851,14.25189,1.91292s8.63926,22.086,8.63926,22.086-2.34687,4.55035-5.23827,6.33495" transform="translate(-183.22978 -32.22077)"/>
    <path class="cls-2" d="M353.08614,682.62177c-.98944,1.08068-1.00131-.81674-3.13031,2.42032-.77366,1.17633,9.33934,20.76262,9.33934,20.76262s3.58936,2.04552,4.43545,2.44459,3.80828,1.39372,3.80828,1.39372" transform="translate(-183.22978 -32.22077)"/>
    <path class="cls-2" d="M275.269,682.642c-4.24474.93619-12.24359.48156-14.25607,1.88155s-8.68784,22.06689-8.68784,22.06689,2.33685,4.5555,5.22432,6.34646" transform="translate(-183.22978 -32.22077)"/>
    <path class="cls-2" d="M250.07881,681.53321c.98706,1.08286.88531-.93332,3.00718,2.30843.77107,1.178-9.385,20.742-9.385,20.742s-3.59384,2.03761-4.44081,2.43482-3.81134,1.38534-3.81134,1.38534" transform="translate(-183.22978 -32.22077)"/>
    <path class="cls-3" d="M360.07507,703.49935c-2.06222-.7934-8.42134-1.83938-13.312,2.27778" transform="translate(-183.22978 -32.22077)"/>
    <path class="cls-3" d="M357.70627,699.1433a13.9179,13.9179,0,0,0-12.08527,1.461" transform="translate(-183.22978 -32.22077)"/>
    <path class="cls-3" d="M354.94075,694.8844c-2.06243-.69486-5.45762-1.63694-11.56024,1.62443" transform="translate(-183.22978 -32.22077)"/>
    <path class="cls-3" d="M353.30949,690.92963c-2.60077-2.23983-7.52968-1.78732-12.418,1.24931" transform="translate(-183.22978 -32.22077)"/>
    <path class="cls-3" d="M242.92616,702.27658c2.06395-.78886,8.42536-1.82084,13.307,2.30707" transform="translate(-183.22978 -32.22077)"/>
    <path class="cls-3" d="M245.30454,697.92576a13.91786,13.91786,0,0,1,12.082,1.48757" transform="translate(-183.22978 -32.22077)"/>
    <path class="cls-3" d="M248.07943,693.673c2.064-.69032,5.4612-1.62493,11.55663,1.64986" transform="translate(-183.22978 -32.22077)"/>
    <path class="cls-3" d="M249.71938,689.72178c2.60569-2.2341,7.5336-1.77075,12.41521,1.27663" transform="translate(-183.22978 -32.22077)"/>
  </g>
  <g id="pants">
    <path class="cls-1" d="M226.80107,355.36249c6.05,1.94171,15.81287,10.30281,33.386,8.92908s40.11284-26.02492,41.04654-49.57778a4.78677,4.78677,0,0,1,1.91,3.539s8.78657,42.53106,40.88192,46.03875a66.92528,66.92528,0,0,0,32.67424-8.86994c-.32736,5.70664-3.1738,17.56586-4.61545,28.68723.61783,11.73919-5.35474,83.20422-6.38449,94.53155s-13.18088,171.96915-14.00467,176.08817,1.02975,25.53794,1.02975,25.53794a14.92515,14.92515,0,0,0-10.09161-3.50118c-5.76663.41191-18.94751,7.6202-25.53793,9.47376-5.14878-5.14878-8.03211-25.53794-7.62018-40.16047s6.17853-117.59807,5.56067-120.68733-.82382-4.86188,0-12.563c-2.26547-13.38681-5.14878-114.0969-5.56067-118.42188s-3.77264-10.3281-7.41425-12.97491c-4.02105,2.44629-5.5607,6.17853-7.878,10.50351s-3.86123,130.573-5.92074,136.54556,4.73687,97.62082,5.76663,115.95047-3.29523,33.776-7.20828,41.80807c-3.50116-2.05951-22.24271-8.64995-25.126-9.06185s-6.17853,0-11.12135,3.29522c-.206-5.56068,1.02975-23.27247.8238-26.77365s-2.47142-11.53326-2.67737-19.3594-4.325-88.76491-6.38449-108.12433c-10.50349-82.79233-10.50349-145.1955-11.53325-148.28476-.92878-2.78635-3.50453-19.34677-4.00076-22.56784-.054-.35022-.08333-.54273-.08333-.54273" transform="translate(-183.22978 -32.22077)"/>
    <path class="cls-1" d="M300.397,321.84615s1.81787,56.7141,1.66387,59.58534" transform="translate(-183.22978 -32.22077)"/>
    <path class="cls-1" d="M256.36209,364.29157s2.86844,73.28332,3.04773,81.88928-.89646,133.751-.35858,137.15749,1.43432,51.99434,2.51007,55.40087,4.48227,7.17163,4.12369,11.47461-3.284,5.33653-4.343,8.51359-.90773,18.00332-.90773,18.00332" transform="translate(-183.22978 -32.22077)"/>
    <path class="cls-1" d="M346.88255,364.29157s-3.78222,98.58059-3.63093,104.9347.75644,80.63674.75644,90.77306-.60515,68.0798-1.66417,75.9468-3.17706,5.2951-3.9335,8.77473-1.36159,7.867,0,9.83375,3.42621,1.81546,3.83115,5.29509.39173,16.91565.39173,16.91565" transform="translate(-183.22978 -32.22077)"/>
  </g>
  <g id="shirt">
    <g id="Layer_8" data-name="Layer 8">
      <path class="cls-1" d="M186.29973,311.67261s-.07107,11.36112.56857,12.60225,18.976,7.44677,29.13924,0a72.10431,72.10431,0,0,0,.28428-11.93391C211.8854,316.4462,191.32527,316.74195,186.29973,311.67261Z" transform="translate(-183.22978 -32.22077)"/>
      <path class="cls-1" d="M417.00635,324.93007q.23144-.163.45735-.33479a69.61458,69.61458,0,0,0,.07541-11.73c-4.33338,4.16874-24.88265,5.097-29.99551.27389,0,0,.12773,11.16077.78892,12.35993.65125,1.18115,18.5514,6.56043,28.67383-.56907" transform="translate(-183.22978 -32.22077)"/>
      <path class="cls-1" d="M333.06208,80.102" transform="translate(-183.22978 -32.22077)"/>
      <path class="cls-1" d="M297.84586,194.05432c3.15-.78751,42.13189-129.15195,42.13189-129.15195l-19.09717-6.20644H276.38616l-16.144,7.78146Z" transform="translate(-183.22978 -32.22077)"/>
    </g>
    <path class="cls-1" d="M333.33,35.41248a3.48328,3.48328,0,0,0-3.43394-2.69146c-5.51488-.00026-14.76752,25.33883-25.98656,24.87285-18.50376-.76855-24.03758-24.87335-29.42051-24.8731s-7.88878,22.8313-7.0535,28.77109,3.43394,24.22319,6.49664,25.3369,18.62358-21.442,21.88763-23.961,9.11064-7.59412,17.185,4.47108,14.84947,21.05465,17.1697,19.52981,6.77507-20.82914,6.40383-28.81073A154.39241,154.39241,0,0,0,333.33,35.41248Z" transform="translate(-183.22978 -32.22077)"/>
  </g>
  <g id="tie">
    <path class="cls-1" d="M293.55243,65.23983s5.1801,3.68752,5.35569,9.39441H304.615c.99744-1.65348,3.51193-9.48221,7.02386-9.39441-1.70117-3.05935-5.0923-5.82991-9.04322-6.00551S293.55243,65.23983,293.55243,65.23983Z" transform="translate(-183.22978 -32.22077)"/>
    <g id="Layer_7" data-name="Layer 7">
      <path class="cls-1" d="M291.03311,175.10728s1.57352-79.8068,1.84717-83.09062,5.6933-9.86255,6.02783-17.38244c4.98663,0,5.12836,0,5.70691,0,1.05579,6.34455,6.07556,15.04817,6.53938,17.62161,1.11627,9.11767-.20583,71.37719,1.0183,73.37223l-13.95624,47.68333Z" transform="translate(-183.22978 -32.22077)"/>
    </g>
  </g>
  <g id="coat">
    <path class="cls-1" d="M256.45625,52.58128S210.74188,73.54714,208.569,75.584c-1.75485,1.645-2.824,4.03425-1.412,6.25309s13.51474,37.72027,14.32159,44.37679,4.236,36.91342,5.84967,40.54425,9.4805,34.97052,9.07707,46.431-2.824,38.85669-7.86679,49.66669c-6.05138,14.99585-10.69077,59.62446-4.63939,89.47794,13.11132,12.7079,30.05519,12.42377,38.52712,11.65813s35.1906-18.67206,39.78369-50.66653c0,0,6.9371-52.83116,7.22937-59.06609s-52.98313-201.678-52.98313-201.678" transform="translate(-183.22978 -32.22077)"/>
    <path class="cls-1" d="M347.635,51.72143c2.554,2.73645,44.148,18.97267,48.89112,27.54686-1.11291,9.89485-11.12821,29.55358-12.58764,38.67506-2.5669,11.92963-5.47289,38.85749-6.74989,44.5128s-4.56074,17.14838-6.02018,24.99285-3.87677,26.23411-3.51191,33.53129,5.2681,38.2929,10.2618,52.02816c5.30372,14.58794,4.32408,52.35884,2.00673,79.7217-.2468,2.91414-29.18872,15.68894-43.2358,9.66876s-29.736-20.06724-34.47918-49.07354-9.12147-96.73613-7.84447-105.4685,26.48439-88.079,26.48439-88.079,16.0097-47.67368,15.75023-56.381S333.33,35.41248,333.33,35.41248a20.71361,20.71361,0,0,1,12.44435,11.74821C349.82412,56.647,347.635,51.72143,347.635,51.72143Z" transform="translate(-183.22978 -32.22077)"/>
    <path class="cls-1" d="M396.52608,79.26829s1.3306-.212,2.1544,1.57291c23.20382,77.71221,19.4967,222.42718,19.4967,233.96044-18.8102,6.865-31.03,2.19681-32.12837.5492,0,0-2.00626-49.26573-6.72966-74.287s-6.76773-60.06067-6.76773-60.06067c-.059-4.04005,8.91513-65.82365,12.25167-72.957S396.52608,79.26829,396.52608,79.26829Z" transform="translate(-183.22978 -32.22077)"/>
    <path class="cls-1" d="M346.48057,48.81739l15.06676,27.68094-12.2623,5.8859s6.86689,10.79083,8.53456,15.59765c-9.71174,11.77181-33.54966,57.78-35.41353,61.40961-8.97328,16.28958-20.01208,44.92907-28.124,49.23068" transform="translate(-183.22978 -32.22077)"/>
    <path class="cls-4" d="M342.66645,96.38769s5.84777-1.61646,6.94126-1.28366" transform="translate(-183.22978 -32.22077)"/>
    <polygon class="cls-5" points="157.473 93.175 183.886 93.175 179.369 101.835 152.667 101.835 157.473 93.175"/>
    <path class="cls-4" d="M304.21873,260.94083s5.27377.24155,7.68923-.56361" transform="translate(-183.22978 -32.22077)"/>
    <path class="cls-1" d="M374.92673,262.85583s-27.28511,9.407-28.10889,10.50538c-.21581.28774-.21176,2.03908.03847,4.49047.705,6.90623,3.36389,19.36881,8.56548,20.31455,7.04792,1.28144,25.39454-10.18252,25.39454-10.18252" transform="translate(-183.22978 -32.22077)"/>
    <path class="cls-5" d="M375.9802,266.847s-18.92542,8.26415-29.12389,11.00466" transform="translate(-183.22978 -32.22077)"/>
    <circle class="cls-6" cx="116.94091" cy="180.96837" r="4.56697"/>
    <path class="cls-1" d="M298.61545,191.87018S267.97742,73.21577,267.278,60.8824a61.459,61.459,0,0,1,4.61356-26.20774,29.87268,29.87268,0,0,0-15.43528,17.90662,167.72372,167.72372,0,0,1-14.36583,24.32924s12.04876,4.86584,12.628,5.79267a62.83248,62.83248,0,0,1-8.34145,15.061c.92683,5.90853,14.70727,25.3799,30.23777,63.256,7.41462,15.52437,18.989,40.78043,18.989,40.78043" transform="translate(-183.22978 -32.22077)"/>
    <path class="cls-1" d="M228.8386,262.17745s28.44932,9.25076,28.89695,11.377a18.82757,18.82757,0,0,1-.42315,4.43431c-1.12257,6.69344-4.165,18.42271-7.52226,19.51381-4.47628,1.45479-26.80641-8.98815-26.80641-8.98815" transform="translate(-183.22978 -32.22077)"/>
    <line class="cls-5" x1="43.99765" y1="234.41824" x2="74.08261" y2="245.76799"/>
    <circle class="cls-6" cx="107.05346" cy="229.85128" r="4.56697"/>
    <path class="cls-1" d="M230.80762,179.16536c-.61277,6.13134-9.04015,73.37836-11.276,91.437s-1.3309,40.26431-2.23584,43.85675-19.95052,6.01956-31.81764,0c-6.9281-15.64123,8.22849-229.45229,19.31891-234.57984,1.34786-1.05135,2.36,1.95778,2.36,1.95778,1.37879,1.1239,22.87532,40.09139,22.87532,40.09139Z" transform="translate(-183.22978 -32.22077)"/>
  </g>
  <g id="handkerchief">
    <polyline class="cls-5" points="181.177 93.175 178.486 83.113 158.503 93.175"/>
  </g>
</svg>
